<?xml version="1.0" encoding="UTF-8"?>
<!-- Created with Inkscape (http://www.inkscape.org/) -->
<svg width="261.42mm" height="68.933mm" version="1.1" viewBox="0 0 261.42 68.933" xmlns="http://www.w3.org/2000/svg">
 <g stroke-width=".753027">
  <path d="m8.5408669 23.500519q-1.5964395 0-2.8615425-0.753038-1.2349815-0.753037-1.9578975-2.048262-0.722916-1.325346-0.722916-3.01215v-14.729413q0-0.5120655 0.301215-0.843402 0.3313365-0.3313365 0.843402-0.3313365t0.843402 0.3313365 0.3313365 0.843402v14.729413q0 1.536197 0.903645 2.530206 0.903645 0.963888 2.3193555 0.963888h0.8132805q0.481944 0 0.7831586 0.331337 0.301215 0.331336 0.301215 0.843402 0 0.512065-0.361458 0.843402-0.3614576 0.301215-0.9036446 0.301215zm-7.5002535-13.85589q-0.45182254 0-0.75303754-0.2710935-0.301215-0.301215-0.301215-0.722916 0-0.4518225 0.301215-0.722916 0.301215-0.301215 0.75303754-0.301215h7.6809825q0.4518225 0 0.7530375 0.301215 0.301215 0.2710935 0.301215 0.722916 0 0.421701-0.301215 0.722916-0.301215 0.2710935-0.7530375 0.2710935z" style="font-variation-settings:'wght' 400"/>
  <path d="m15.388801 16.783424q-0.542187 0-0.873523-0.331336-0.301215-0.331337-0.301215-0.843402v-14.45832q0-0.54218701 0.301215-0.84340201 0.331336-0.3313365 0.873523-0.3313365 0.512066 0 0.813281 0.3313365 0.331336 0.301215 0.331336 0.84340201v14.45832q0 0.512065-0.331336 0.843402-0.301215 0.331336-0.813281 0.331336zm12.952245 6.717095q-0.512065 0-0.843402-0.331337-0.331336-0.331336-0.331336-0.81328v-7.83159q0-1.867533-0.722916-3.072393-0.692795-1.20486-1.927776-1.8072902-1.20486-0.60243-2.741057-0.60243-1.475953 0-2.680813 0.5723085-1.174739 0.5723087-1.867533 1.5663177-0.692795 0.99401-0.692795 2.259113h-1.656682q0.06024-1.897655 1.024131-3.373608 0.963888-1.5060752 2.560327-2.3494772 1.59644-0.8735235 3.554337-0.8735235 2.138627 0 3.825431 0.903645 1.686804 0.8735235 2.650692 2.5904487 0.994009 1.716926 0.994009 4.186889v7.83159q0 0.481944-0.331336 0.81328-0.331337 0.331337-0.813281 0.331337zm-12.952245 0q-0.542187 0-0.873523-0.301215-0.301215-0.331337-0.301215-0.843402v-14.157105q0-0.542187 0.301215-0.843402 0.331336-0.3313365 0.873523-0.3313365 0.512066 0 0.813281 0.3313365 0.331336 0.301215 0.331336 0.843402v14.157105q0 0.512065-0.331336 0.843402-0.301215 0.301215-0.813281 0.301215z" style="font-variation-settings:'wght' 400"/>
  <path d="m42.098571 23.651126q-2.439841 0-4.337496-1.054252-1.867533-1.084374-2.951907-2.982029-1.054252-1.897654-1.054252-4.337496 0-2.469963 0.994009-4.337496 1.024131-1.8976542 2.8013-2.9820282 1.777168-1.084374 4.096524-1.084374 2.289234 0 3.976038 1.0542525 1.716925 1.024131 2.650692 2.8615427 0.933766 1.837411 0.933766 4.186888 0 0.481944-0.301215 0.783159-0.301215 0.271094-0.783159 0.271094h-12.801637v-1.927776h13.042609l-1.295224 0.933766q0.03012-1.747047-0.632552-3.132636-0.662673-1.385589-1.897654-2.1687477-1.20486-0.783159-2.891664-0.783159-1.716926 0-3.01215 0.8132805-1.295225 0.8132802-2.018141 2.2591122-0.692794 1.415711-0.692794 3.253122 0 1.837412 0.783159 3.253122 0.81328 1.415711 2.198869 2.228991 1.385589 0.813281 3.192879 0.813281 1.084374 0 2.168748-0.361458 1.114496-0.39158 1.777169-0.963888 0.331336-0.271094 0.753037-0.271094 0.421701-0.03012 0.722916 0.210851 0.39158 0.361458 0.39158 0.783159 0.03012 0.421701-0.331337 0.722916-0.994009 0.843402-2.530206 1.41571-1.536196 0.542187-2.951907 0.542187z" style="font-variation-settings:'wght' 400"/>
 </g>
 <g stroke-width="1.20809">
  <path d="m14.400282 68.90754q-3.769327 0-6.8137829-1.739689-2.9961314-1.739689-4.7841453-4.735821-1.7396891-3.044456-1.7880138-6.813782v-22.809259q0-0.869844 0.483247-1.353091 0.5315717-0.531572 1.4014162-0.531572 0.8215199 0 1.3047669 0.531572 0.5315717 0.483247 0.5315717 1.353091v14.207462q1.5947151-2.271261 4.2042489-3.624352 2.6578583-1.401417 5.8956133-1.401417 3.721002 0 6.668809 1.788014 2.947806 1.739689 4.639171 4.784145 1.739689 3.044457 1.739689 6.862108 0 3.865976-1.788014 6.910432-1.739689 3.044456-4.784145 4.83247-3.044456 1.739689-6.910432 1.739689zm0-3.382729q2.802832 0 5.025768-1.304767 2.222937-1.353091 3.479379-3.624352 1.304767-2.271261 1.304767-5.170743 0-2.851157-1.304767-5.122418-1.256442-2.319586-3.479379-3.624353-2.222936-1.304767-5.025768-1.304767-2.754508 0-4.9774443 1.304767-2.2229362 1.304767-3.4793784 3.624353-1.2564422 2.271261-1.2564422 5.122418 0 2.899482 1.2564422 5.170743t3.4793784 3.624352q2.2229363 1.304767 4.9774443 1.304767z" style="font-variation-settings:'wght' 400"/>
  <path d="m47.165938 68.90754q-3.914301 0-6.958757-1.691365-2.996131-1.739689-4.735821-4.784145-1.691364-3.044456-1.691364-6.958756 0-3.962626 1.594715-6.958757 1.64304-3.044456 4.494197-4.784145 2.851157-1.73969 6.572159-1.73969 3.672677 0 6.378861 1.691365 2.754507 1.64304 4.252573 4.590846 1.498066 2.947807 1.498066 6.717134 0 0.773195-0.483247 1.256442-0.483247 0.434922-1.256442 0.434922h-20.537998v-3.092781h20.924595l-2.077962 1.498066q0.04832-2.802833-1.014819-5.025769-1.063143-2.222936-3.044456-3.479378-1.932988-1.256442-4.639171-1.256442-2.754508 0-4.83247 1.304767-2.077962 1.304766-3.237755 3.624352-1.111468 2.271261-1.111468 5.219068 0 2.947806 1.256443 5.219067 1.304766 2.271261 3.527703 3.576028 2.222936 1.304767 5.122418 1.304767 1.739689 0 3.479378-0.579897 1.788014-0.628221 2.851157-1.54639 0.531572-0.434922 1.208118-0.434922 0.676546-0.04832 1.159793 0.338273 0.628221 0.579896 0.628221 1.256442 0.04832 0.676545-0.531572 1.159792-1.594715 1.353092-4.059275 2.271261-2.464559 0.869845-4.73582 0.869845z" style="font-variation-settings:'wght' 400"/>
  <path d="m75.159529 68.665916q-2.561209 0-4.590846-1.208117-1.981313-1.208118-3.141106-3.28608-1.159793-2.126286-1.159793-4.83247v-23.630778q0-0.821519 0.483247-1.353091 0.531572-0.531572 1.353092-0.531572t1.353091 0.531572q0.531572 0.531572 0.531572 1.353091v23.630778q0 2.46456 1.449741 4.059275 1.449741 1.546391 3.721002 1.546391h1.304767q0.773195 0 1.256442 0.531571 0.483247 0.531572 0.483247 1.353092t-0.579896 1.353091q-0.579897 0.483247-1.449741 0.483247zm-12.03285-22.229361q-0.724871 0-1.208118-0.434923-0.483247-0.483247-0.483247-1.159792 0-0.724871 0.483247-1.159793 0.483247-0.483247 1.208118-0.483247h12.322798q0.724871 0 1.208118 0.483247 0.483247 0.434922 0.483247 1.159793 0 0.676545-0.483247 1.159792-0.483247 0.434923-1.208118 0.434923z" style="font-variation-settings:'wght' 400"/>
  <path d="m94.602667 68.665916q-2.561209 0-4.590846-1.208117-1.981313-1.208118-3.141106-3.28608-1.159793-2.126286-1.159793-4.83247v-23.630778q0-0.821519 0.483247-1.353091 0.531572-0.531572 1.353092-0.531572t1.353092 0.531572q0.531571 0.531572 0.531571 1.353091v23.630778q0 2.46456 1.449741 4.059275 1.449741 1.546391 3.721002 1.546391h1.304767q0.773195 0 1.256442 0.531571 0.483247 0.531572 0.483247 1.353092t-0.579896 1.353091q-0.579897 0.483247-1.449741 0.483247zm-12.03285-22.229361q-0.724871 0-1.208118-0.434923-0.483247-0.483247-0.483247-1.159792 0-0.724871 0.483247-1.159793 0.483247-0.483247 1.208118-0.483247h12.322798q0.724871 0 1.208118 0.483247 0.483247 0.434922 0.483247 1.159793 0 0.676545-0.483247 1.159792-0.483247 0.434923-1.208118 0.434923z" style="font-variation-settings:'wght' 400"/>
  <path d="m115.68885 68.90754q-3.9143 0-6.95875-1.691365-2.99614-1.739689-4.73582-4.784145-1.69137-3.044456-1.69137-6.958756 0-3.962626 1.59472-6.958757 1.64304-3.044456 4.49419-4.784145 2.85116-1.73969 6.57216-1.73969 3.67268 0 6.37886 1.691365 2.75451 1.64304 4.25258 4.590846 1.49806 2.947807 1.49806 6.717134 0 0.773195-0.48325 1.256442-0.48324 0.434922-1.25644 0.434922h-20.53799v-3.092781h20.92459l-2.07796 1.498066q0.0483-2.802833-1.01482-5.025769-1.06314-2.222936-3.04446-3.479378-1.93298-1.256442-4.63917-1.256442-2.75451 0-4.83247 1.304767-2.07796 1.304766-3.23775 3.624352-1.11147 2.271261-1.11147 5.219068 0 2.947806 1.25644 5.219067 1.30477 2.271261 3.5277 3.576028 2.22294 1.304767 5.12242 1.304767 1.73969 0 3.47938-0.579897 1.78801-0.628221 2.85116-1.54639 0.53157-0.434922 1.20812-0.434922 0.67654-0.04832 1.15979 0.338273 0.62822 0.579896 0.62822 1.256442 0.0483 0.676545-0.53157 1.159792-1.59472 1.353092-4.05928 2.271261-2.46456 0.869845-4.73582 0.869845z" style="font-variation-settings:'wght' 400"/>
  <path d="m134.88734 52.380493q0.14498-2.996132 1.5464-5.364042 1.44974-2.36791 3.721-3.721002 2.31958-1.353091 5.12242-1.353091 2.22293 0 3.43105 0.628221t0.91817 1.836338q-0.1933 0.724871-0.67655 0.966494-0.43492 0.241624-1.11147 0.193299-0.62822-0.04832-1.44974-0.09665-2.70618-0.241624-4.83247 0.579896-2.07796 0.773195-3.3344 2.416235-1.20812 1.64304-1.20812 3.914301zm0.28995 16.285423q-0.86984 0-1.35309-0.483247t-0.48325-1.353091v-22.760934q0-0.869844 0.48325-1.353091t1.35309-0.483247q0.86985 0 1.35309 0.483247 0.48325 0.483247 0.48325 1.353091v22.760934q0 0.869844-0.48325 1.353091-0.48324 0.483247-1.35309 0.483247z" style="font-variation-settings:'wght' 400"/>
  <path d="m191.23319 68.665916q-0.82152 0-1.35309-0.483247-0.53157-0.531571-0.53157-1.353091v-13.917514q0-3.431053-1.78802-5.412366-1.78801-2.029637-4.59084-2.029637-2.99614 0-4.92912 2.029637-1.88467 1.981313-1.83634 5.315717h-3.33441q0.0483-3.237755 1.40142-5.702314 1.35309-2.46456 3.721-3.817652 2.36791-1.353091 5.36404-1.353091 2.85116 0 5.02577 1.353091 2.22294 1.353092 3.43106 3.817652 1.25644 2.464559 1.25644 5.798963v13.917514q0 0.82152-0.53157 1.353091-0.48325 0.483247-1.30477 0.483247zm-33.82729 0q-0.86984 0-1.40142-0.483247-0.48324-0.531571-0.48324-1.353091v-22.712609q0-0.82152 0.48324-1.353091 0.53158-0.531572 1.40142-0.531572 0.82152 0 1.30477 0.531572 0.53157 0.531571 0.53157 1.353091v22.712609q0 0.82152-0.53157 1.353091-0.48325 0.483247-1.30477 0.483247zm16.96197 0q-0.82152 0-1.35309-0.483247-0.53157-0.531571-0.53157-1.353091v-13.917514q0-3.431053-1.78802-5.412366-1.78801-2.029637-4.59084-2.029637-2.99614 0-4.92912 1.981312-1.93299 1.932988-1.93299 5.074094h-2.65786q0.0966-3.092781 1.35309-5.460691 1.30477-2.416235 3.5277-3.769327 2.22294-1.353091 5.02577-1.353091 2.85116 0 5.02577 1.353091 2.22294 1.353092 3.43106 3.817652 1.25644 2.464559 1.25644 5.798963v13.917514q0 0.82152-0.53157 1.353091-0.48325 0.483247-1.30477 0.483247z" style="font-variation-settings:'wght' 400"/>
  <path d="m203.95543 68.665916q-0.86984 0-1.40141-0.483247-0.48325-0.531571-0.48325-1.401416v-22.664284q0-0.869844 0.48325-1.353091 0.53157-0.531572 1.40141-0.531572 0.82152 0 1.30477 0.531572 0.53157 0.483247 0.53157 1.353091v22.664284q0 0.869845-0.53157 1.401416-0.48325 0.483247-1.30477 0.483247zm-0.0483-31.459379q-1.06315 0-1.83634-0.773195-0.7732-0.773195-0.7732-1.884663 0-1.208118 0.7732-1.884664 0.82152-0.72487 1.88466-0.72487 1.01482 0 1.78802 0.72487 0.82152 0.676546 0.82152 1.884664 0 1.111468-0.7732 1.884663-0.77319 0.773195-1.88466 0.773195z" style="font-variation-settings:'wght' 400"/>
  <path d="m237.93071 68.665916q-0.82152 0-1.35309-0.531571-0.53157-0.531572-0.53157-1.304767v-12.564422q0-2.996131-1.15979-4.929119-1.11147-1.932988-3.09278-2.899482-1.93299-0.966494-4.39755-0.966494-2.36791 0-4.3009 0.918169-1.88466 0.918169-2.99613 2.512884t-1.11147 3.624353h-2.65786q0.0967-3.044456 1.64304-5.412366 1.54639-2.416235 4.1076-3.769327 2.56121-1.401416 5.70232-1.401416 3.43105 0 6.13723 1.449741 2.70619 1.401416 4.25258 4.155924 1.59471 2.754508 1.59471 6.717133v12.564422q0 0.773195-0.53157 1.304767-0.53157 0.531571-1.30477 0.531571zm-20.77962 0q-0.86984 0-1.40141-0.483247-0.48325-0.531571-0.48325-1.353091v-22.712609q0-0.869844 0.48325-1.353091 0.53157-0.531572 1.40141-0.531572 0.82152 0 1.30477 0.531572 0.53157 0.483247 0.53157 1.353091v22.712609q0 0.82152-0.53157 1.353091-0.48325 0.483247-1.30477 0.483247z" style="font-variation-settings:'wght' 400"/>
  <path d="m258.35921 68.665916q-2.56121 0-4.59084-1.208117-1.98132-1.208118-3.14111-3.28608-1.15979-2.126286-1.15979-4.83247v-23.630778q0-0.821519 0.48325-1.353091 0.53157-0.531572 1.35309-0.531572t1.35309 0.531572 0.53157 1.353091v23.630778q0 2.46456 1.44974 4.059275 1.44974 1.546391 3.721 1.546391h1.30477q0.7732 0 1.25644 0.531571 0.48325 0.531572 0.48325 1.353092t-0.5799 1.353091q-0.57989 0.483247-1.44974 0.483247zm-12.03285-22.229361q-0.72487 0-1.20811-0.434923-0.48325-0.483247-0.48325-1.159792 0-0.724871 0.48325-1.159793 0.48324-0.483247 1.20811-0.483247h12.3228q0.72487 0 1.20812 0.483247 0.48325 0.434922 0.48325 1.159793 0 0.676545-0.48325 1.159792-0.48325 0.434923-1.20812 0.434923z" style="font-variation-settings:'wght' 400"/>
 </g>
</svg>
