<?xml version="1.0" encoding="UTF-8"?>
<!-- Created with Inkscape (http://www.inkscape.org/) -->
<svg width="416.05872mm" height="95.809082mm" version="1.1" viewBox="0 0 416.0587 95.809083" xmlns="http://www.w3.org/2000/svg">
 <g fill="#fefefe">
  <path transform="matrix(.10612915 0 0 .10612915 131.55428 99.642507)" d="m-846.87499-49.453461-379.35941-219.02326v-438.04654l379.35939-219.02328 379.35944 219.02326 1e-5 438.04654z" style="font-variation-settings:'wght' 500"/>
  <path transform="matrix(.10612915 0 0 .10612915 397.71934 99.642507)" d="m-846.87499-49.453461-379.35941-219.02326v-438.04654l379.35939-219.02328 379.35944 219.02326 1e-5 438.04654z" style="font-variation-settings:'wght' 500"/>
  <path transform="matrix(.10612915 0 0 .10612915 331.17808 99.642507)" d="m-846.87499-49.453461-379.35941-219.02326v-438.04654l379.35939-219.02328 379.35944 219.02326 1e-5 438.04654z" style="font-variation-settings:'wght' 500"/>
  <path transform="matrix(.10612915 0 0 .10612915 464.26068 99.642507)" d="m-846.87499-49.453461-379.35941-219.02326v-438.04654l379.35939-219.02328 379.35944 219.02326 1e-5 438.04654z" style="font-variation-settings:'wght' 500"/>
  <path transform="matrix(.10612915 0 0 .10612915 198.09554 99.642507)" d="m-846.87499-49.453461-379.35941-219.02326v-438.04654l379.35939-219.02328 379.35944 219.02326 1e-5 438.04654z" style="font-variation-settings:'wght' 500"/>
  <path transform="matrix(.10612915 0 0 .10612915 264.63677 99.642507)" d="m-846.87499-49.453461-379.35941-219.02326v-438.04654l379.35939-219.02328 379.35944 219.02326 1e-5 438.04654z" style="font-variation-settings:'wght' 500"/>
 </g>
 <g fill-opacity=".103982" stroke="#000" stroke-linejoin="round" stroke-width="26.6667">
  <path transform="matrix(.10612915 0 0 .10612915 131.55428 99.642503)" d="m-846.87499-49.453461-379.35941-219.02326v-438.04654l379.35939-219.02328 379.35944 219.02326 1e-5 438.04654z" fill="#ff0101" style="font-variation-settings:'wght' 500"/>
  <path transform="matrix(.10612915 0 0 .10612915 397.71934 99.642503)" d="m-846.87499-49.453461-379.35941-219.02326v-438.04654l379.35939-219.02328 379.35944 219.02326 1e-5 438.04654z" fill="#04fc66" style="font-variation-settings:'wght' 500"/>
  <path transform="matrix(.10612915 0 0 .10612915 331.17808 99.642503)" d="m-846.87499-49.453461-379.35941-219.02326v-438.04654l379.35939-219.02328 379.35944 219.02326 1e-5 438.04654z" fill="#ff8701" style="font-variation-settings:'wght' 500"/>
  <path transform="matrix(.10612915 0 0 .10612915 464.26068 99.642503)" d="m-846.87499-49.453461-379.35941-219.02326v-438.04654l379.35939-219.02328 379.35944 219.02326 1e-5 438.04654z" fill="#1203fd" style="font-variation-settings:'wght' 500"/>
  <path transform="matrix(.10612915 0 0 .10612915 198.09554 99.642503)" d="m-846.87499-49.453461-379.35941-219.02326v-438.04654l379.35939-219.02328 379.35944 219.02326 1e-5 438.04654z" fill="#e818d1" style="font-variation-settings:'wght' 500"/>
  <path transform="matrix(.10612915 0 0 .10612915 264.63677 99.642503)" d="m-846.87499-49.453461-379.35941-219.02326v-438.04654l379.35939-219.02328 379.35944 219.02326 1e-5 438.04654z" fill="#ffff01" style="font-variation-settings:'wght' 500"/>
 </g>
</svg>
