<?xml version="1.0" encoding="UTF-8"?>
<!-- Created with Inkscape (http://www.inkscape.org/) -->
<svg width="41.487mm" height="7.7755mm" version="1.1" viewBox="0 0 41.487 7.7755" xmlns="http://www.w3.org/2000/svg">
 <g transform="translate(-69.913 -146.01)">
  <g transform="matrix(.83145 0 0 .68068 -11.67 77.554)" stroke-width="0">
   <g transform="matrix(1.4846 0 0 1.4846 36.202 -49.901)" aria-label="L">
    <path d="m46.577 109.05h-4.8679v-7.6946h1.0232v6.6536h3.8447z" stroke-width="0"/>
   </g>
   <g transform="matrix(1.4846 0 0 1.4846 36.202 -49.901)" aria-label="A">
    <path d="m55.125 109.05h-6.966l2.8009-7.6946h1.3643zm-1.0904 0-2.1438-6.1744-0.50827 0.0115-2.1848 6.1629z" stroke-width="0"/>
   </g>
   <g transform="matrix(1.4846 0 0 1.4846 36.202 -49.901)" aria-label="R">
    <path d="m63.672 109.05h-1.3281l-2.5735-3.0592-1.4418-0.85264v3.9119h-1.0232v-7.6946h2.1549c0.46509 0 0.85266 0.031 1.1627 0.093 0.31006 0.0585 0.58911 0.16533 0.83716 0.32039 0.27905 0.1757 0.49609 0.39791 0.65112 0.66663 0.15847 0.26527 0.23771 0.60288 0.23771 1.0128 0 0.55466-0.13953 1.0198-0.41858 1.3953-0.27905 0.37207-0.66318 0.65284-1.1524 0.84232zm-2.3926-5.5294c0-0.22049-0.03962-0.41513-0.11886-0.58394-0.07579-0.17226-0.20326-0.31695-0.3824-0.43408-0.14814-0.0999-0.32384-0.16882-0.5271-0.20671-0.20326-0.0413-0.44269-0.062-0.7183-0.062h-1.2041v2.9042l1.4418 0.85264-0.0028-0.87882s0.21083 5e-3 0.44205-0.0565c0.24116-0.0586 0.44614-0.1654 0.61495-0.32039 0.15503-0.14469 0.26872-0.31006 0.34106-0.49609 0.07579-0.18948 0.11369-0.42891 0.11369-0.7183z" stroke-width="0"/>
   </g>
   <g transform="matrix(-1.4846 0 0 1.4846 239.24 -50.031)" aria-label="K">
    <path d="m71.694 109.14h-1.3281l-1.8466-3.4261-1.436-0.25321v3.6794h-1.0232v-7.6946h1.0232v4.0152l1.436 0.25321-0.01717-1.1548 1.7914-3.1136h1.2402l-2.0418 3.6173z" stroke-width="0"/>
   </g>
   <g transform="matrix(1.4846 0 0 1.4846 41.584 -50.031)" aria-label="K">
    <path d="m71.694 109.14h-1.3281l-1.8466-3.4261-1.436-0.25321v3.6794h-1.0232v-7.6946h1.0232v4.0152l1.436 0.25321-0.01717-1.1548 1.7914-3.1136h1.2402l-2.0418 3.6173z" stroke-width="0"/>
   </g>
  </g>
 </g>
</svg>
