<?xml version="1.0" encoding="UTF-8"?>
<!-- Created with Inkscape (http://www.inkscape.org/) -->
<svg width="52.802mm" height="12.657mm" version="1.1" viewBox="0 0 52.802 12.657" xmlns="http://www.w3.org/2000/svg">
 <path d="m5.33149 5.15859q0 1.41072-0.72344 2.22719-0.72345 0.81646-1.93781 0.81646-1.22469 0-1.94814-0.81646-0.71828-0.81647-0.71828-2.22719t0.71828-2.22718q0.72345-0.82163 1.94814-0.82163 1.21436 0 1.93781 0.82163 0.72344 0.81646 0.72344 2.22718zm-1.00249 0q0-1.12134-0.43923-1.66393-0.43924-0.54775-1.21953-0.54775-0.79062 0-1.22986 0.54775-0.43407 0.54259-0.43407 1.66393 0 1.08517 0.43924 1.64843 0.43923 0.55809 1.22469 0.55809 0.77512 0 1.21436-0.55292 0.4444-0.55809 0.4444-1.6536z" stroke-width=".26458"/>
 <path d="m11.66682 8.04205h-0.97148v-3.28652q0-0.3979-0.0465-0.74412-0.0465-0.35139-0.17053-0.54775-0.12918-0.21704-0.37205-0.32039-0.24288-0.10851-0.63044-0.10851-0.39789 0-0.83196 0.19636-0.43407 0.19637-0.83197 0.50125v4.30968h-0.97148v-5.77208h0.97148v0.64077q0.45474-0.37723 0.94049-0.5891 0.48574-0.21186 0.99732-0.21186 0.93531 0 1.42622 0.56325 0.49091 0.56326 0.49091 1.62259z" stroke-width=".26458"/>
 <g fill="#4d92e0" stroke-width=".265">
  <path d="m17.82256 7.71133q-0.48575 0.23253-0.92498 0.36172-0.43407 0.12919-0.92498 0.12919-0.62527 0-1.14718-0.18086-0.52192-0.18603-0.89398-0.55809-0.37722-0.37206-0.58392-0.94048-0.2067-0.56843-0.2067-1.32804 0-1.41589 0.77512-2.22202 0.78029-0.80613 2.05666-0.80613 0.49608 0 0.97149 0.13952 0.48057 0.13953 0.87847 0.34106v1.08h-0.0517q-0.4444-0.34622-0.91981-0.53225-0.47024-0.18603-0.91981-0.18603-0.8268 0-1.30737 0.55809-0.47541 0.55292-0.47541 1.62776 0 1.04383 0.46507 1.60708 0.47024 0.55809 1.31771 0.55809 0.29455 0 0.59943-0.0775t0.54775-0.20153q0.21187-0.10852 0.3979-0.22737 0.18603-0.12402 0.29454-0.21187h0.0517z"/>
  <path d="m20.05491 8.07305h-0.97149v-8.0406h0.97149z"/>
  <path d="m23.03138 1.33466h-1.09551v-1.00766h1.09551zm-0.062 6.73839h-0.97149v-5.77207h0.97149z"/>
  <path d="m29.17034 7.71133q-0.48574 0.23253-0.92497 0.36172-0.43407 0.12919-0.92498 0.12919-0.62527 0-1.14718-0.18086-0.52192-0.18603-0.89398-0.55809-0.37722-0.37206-0.58392-0.94048-0.2067-0.56843-0.2067-1.32804 0-1.41589 0.77512-2.22202 0.78029-0.80613 2.05666-0.80613 0.49608 0 0.97148 0.13952 0.48058 0.13953 0.87847 0.34106v1.08h-0.0517q-0.4444-0.34622-0.91981-0.53225-0.47024-0.18603-0.91981-0.18603-0.8268 0-1.30738 0.55809-0.4754 0.55292-0.4754 1.62776 0 1.04383 0.46507 1.60708 0.47024 0.55809 1.31771 0.55809 0.29454 0 0.59942-0.0775 0.30489-0.0775 0.54776-0.20153 0.21186-0.10852 0.39789-0.22737 0.18603-0.12402 0.29455-0.21187h0.0517z"/>
  <path d="m35.6607 8.07305h-1.28153l-2.31504-2.5269-0.63043 0.59943v1.92747h-0.97148v-8.0406h0.97148v5.15715l2.80594-2.88862h1.2247l-2.68193 2.66642z"/>
 </g>
 <path d="m13.04 9.28h22.712" color="#000000" fill="#504de0" stroke-width=".265" style="-inkscape-stroke:none"/>
 <path d="m13.04094 9.14812v0.26368h22.71093v-0.26368z" color="#000000" fill="#4d92e0" style="-inkscape-stroke:none"/>
 <g stroke-width=".26458">
  <path d="m41.9895 5.11208q0 0.72345-0.2067 1.30221-0.20153 0.57876-0.54775 0.97149-0.36689 0.40823-0.80613 0.61493-0.43923 0.20153-0.96631 0.20153-0.49092 0-0.85781-0.11885-0.36689-0.11369-0.72344-0.31005l-0.062 0.26871h-0.90948v-8.0406h0.97149v2.87312q0.40823-0.33589 0.86813-0.54776 0.45991-0.21703 1.0335-0.21703 1.02316 0 1.61225 0.78546 0.59426 0.78545 0.59426 2.21684zm-1.00249 0.0258q0-1.03349-0.34105-1.56574-0.34106-0.53742-1.10067-0.53742-0.42374 0-0.85781 0.18603-0.43407 0.18086-0.80612 0.47024v3.30718q0.41339 0.18603 0.70794 0.25838 0.29972 0.0723 0.67694 0.0723 0.80613 0 1.26087-0.52708 0.4599-0.53225 0.4599-1.66393z"/>
  <path d="m48.33517 5.25677h-4.25284q0 0.53225 0.16019 0.93015 0.1602 0.39273 0.43924 0.64594 0.26871 0.24803 0.6356 0.37205 0.37206 0.12402 0.81646 0.12402 0.5891 0 1.18336-0.23253 0.59942-0.23771 0.85263-0.46508h0.0517v1.05934q-0.49091 0.2067-1.00249 0.34622t-1.07483 0.13952q-1.43656 0-2.24269-0.77512-0.80613-0.78029-0.80613-2.21168 0-1.41589 0.76996-2.24786 0.77512-0.83196 2.03599-0.83196 1.16785 0 1.79828 0.68211 0.6356 0.6821 0.6356 1.9378zm-0.94565-0.74411q-5e-3 -0.76479-0.38756-1.18336-0.37723-0.41856-1.15235-0.41856-0.78029 0-1.24536 0.4599-0.45991 0.45991-0.52192 1.14202z"/>
  <path d="m52.80504 7.99037q-0.27388 0.0724-0.59943 0.11885-0.32038 0.0465-0.57359 0.0465-0.88364 0-1.34354-0.47541-0.45991-0.47541-0.45991-1.5244v-3.06949h-0.65627v-0.81646h0.65627v-1.65876h0.97149v1.65876h2.00498v0.81646h-2.00498v2.63025q0 0.45474 0.0207 0.71311 0.0207 0.25321 0.14469 0.47541 0.11368 0.2067 0.31005 0.30488 0.20153 0.093 0.60976 0.093 0.2377 0 0.49608-0.0672 0.25837-0.0724 0.37206-0.11885h0.0517z"/>
 </g>
 <path d="m34.9 8.23 1.4582 4.0382 0.82775-1.4337 2.2009 1.7141 0.78522-1.1217-2.4117-1.3461 0.78521-1.0656z" color="#000000" fill="#fff" stroke-width=".15125px" style="-inkscape-stroke:none"/>
 <path d="m34.78312 8.12664 0.0449 0.12891 1.51367 4.1914 0.86719-1.49804 2.19336 1.70898 0.8789-1.25586-2.41015-1.3457 0.80468-1.08985zm0.23438 0.20703 3.39648 0.73047-0.76562 1.04102 2.41211 1.34765-0.68945 0.98633-2.20704-1.7168-0.78906 1.36719z" color="#000000" style="-inkscape-stroke:none"/>
</svg>
