<?xml version="1.0" encoding="UTF-8"?>
<!-- Created with Inkscape (http://www.inkscape.org/) -->
<svg width="107.27mm" height="12.781mm" version="1.1" viewBox="0 0 107.27 12.781" xmlns="http://www.w3.org/2000/svg">
 <g transform="translate(-34.552 -105.03)">
  <g transform="matrix(1.925 0 0 1.925 -16.9 -33.225)">
   <g transform="matrix(1 0 0 .88858 -70.102 -38.657)" stroke-width=".26458" style="font-variation-settings:'wght' 400" aria-label="UNDAUN">
    <path d="m99.879 131.8q-1.4182 0-2.2331-0.81492-0.81491-0.81491-0.81491-2.413v-4.2439h0.78316v4.2122q0 1.3123 0.59266 1.9367 0.59266 0.62442 1.6722 0.62442 1.0901 0 1.6827-0.62442 0.59267-0.62441 0.59267-1.9367v-4.2122h0.76199v4.2439q0 1.5981-0.81491 2.413-0.80433 0.81492-2.2225 0.81492z"/>
    <path d="m105.29 131.74v-7.4083h0.64558l5.1117 6.4346h-0.33867v-6.4346h0.77258v7.4083h-0.64558l-5.1012-6.4346h0.33867v6.4346z"/>
    <path d="m113.89 131.74v-7.4083h3.0162q1.1853 0 2.0743 0.47625 0.89958 0.46566 1.397 1.3017 0.49741 0.83608 0.49741 1.9262t-0.49741 1.9262q-0.49742 0.83608-1.397 1.3123-0.889 0.46567-2.0743 0.46567zm0.78317-0.67733h2.1907q0.98425 0 1.7039-0.381 0.73025-0.39159 1.1324-1.0689 0.40216-0.68791 0.40216-1.5769 0-0.89958-0.40216-1.5769-0.40217-0.67733-1.1324-1.0583-0.71966-0.39158-1.7039-0.39158h-2.1907z"/>
    <path d="m121.34 131.74 3.3866-7.4083h0.77258l3.3867 7.4083h-0.8255l-3.1115-6.9532h0.3175l-3.1115 6.9532z"/>
    <path d="m132.93 131.8q-1.4182 0-2.2331-0.81492-0.81491-0.81491-0.81491-2.413v-4.2439h0.78316v4.2122q0 1.3123 0.59267 1.9367 0.59266 0.62442 1.6722 0.62442 1.0901 0 1.6828-0.62442 0.59266-0.62441 0.59266-1.9367v-4.2122h0.762v4.2439q0 1.5981-0.81492 2.413-0.80433 0.81492-2.2225 0.81492z"/>
    <path d="m138.34 131.74v-7.4083h0.64559l5.1117 6.4346h-0.33867v-6.4346h0.77258v7.4083h-0.64558l-5.1012-6.4346h0.33867v6.4346z"/>
   </g>
   <text transform="scale(1.0608 .94265)" x="72.03952" y="83.235565" fill="#000000" font-family="Montserrat" font-size="9.9763px" stroke-width=".24941" style="font-variant-caps:normal;font-variant-east-asian:normal;font-variant-ligatures:normal;font-variant-numeric:normal;font-variation-settings:'wght' 400;line-height:1.25" xml:space="preserve"><tspan x="72.03952" y="83.235565" font-family="Montserrat" font-size="9.9763px" stroke-width=".24941" style="font-variant-caps:normal;font-variant-east-asian:normal;font-variant-ligatures:normal;font-variant-numeric:normal;font-variation-settings:'wght' 400">T</tspan></text>
  </g>
 </g>
</svg>
